<mxfile host="app.diagrams.net" modified="2024-02-27T05:56:37.276Z" agent="Mozilla/5.0 (Windows NT 10.0; Win64; x64) AppleWebKit/537.36 (KHTML, like Gecko) Chrome/120.0.0.0 Safari/537.36" version="23.1.7" etag="zOe29qh935IobDFZfy5p" type="github">
  <diagram name="第 1 页" id="05gh3oX2wTXWJUNN4u5p">
    <mxGraphModel>
      <root>
        <mxCell id="0" />
        <mxCell id="1" parent="0" />
      </root>
    </mxGraphModel>
  </diagram>
</mxfile>
